<?xml version="1.0" encoding="utf-8"?>

<!DOCTYPE svg PUBLIC "-//W3C//DTD SVG 1.1//EN" "http://www.w3.org/Graphics/SVG/1.1/DTD/svg11.dtd">
<!-- Uploaded to: SVG Repo, www.svgrepo.com, Generator: SVG Repo Mixer Tools -->
<svg height="800px" width="800px" version="1.1" id="_x32_" xmlns="http://www.w3.org/2000/svg" xmlns:xlink="http://www.w3.org/1999/xlink" 
	 viewBox="0 0 800 800"  xml:space="preserve">
<style type="text/css">
	.st0{fill:#084927;}
</style>
<g>
	<path class="st0" d="M493.656,124.29c-15.374-54.334-60.399-77.447-112.012-68.662c-47.529,8.09-72.358,67.34-83.923,103.27
		c3.44-47.59-5.354-113.771-62.132-144.674C148.834-32.997,93.926,51.562,88.435,62.543c-5.491,10.982-5.5,13.084,9.883,12.08
		c4.582-0.3,44.51-11.538,83.692-4.452l18.437-17.004l8.545,23.962c32.464,11.376,58.511,40.529,63.204,84.241
		c-26.338-32.379-66.962-53.226-112.707-53.226c-79.539,0-144.014,62.723-144.014,140.093c0,6.228,0.129,1.759,0.129,1.759
		c0.223,2.933,2.144,5.464,4.907,6.468c2.762,0.996,5.86,0.283,7.91-1.827c0,0,1.604-2.497,8.811-9.086
		c12.697-11.617,26.664-21.852,41.627-30.577l13.684-25.541l18.463,9.806c27.703-11.041,57.919-17.133,89.569-17.133
		c20.873,0,41.138,2.651,60.467,7.618c-44.57-2.951-111.746,20.282-138.334,77c-32.945,70.282-0.524,126.066,4.161,130.432
		c3.844,3.578,8.494,0.79,9.755-5.448c2.753-13.632,10.321-39.113,24.219-67.692l-5.611-22.666l15.452,3.955
		c19.364-34.147,47.719-70,87.827-94.15c-30.997,68.291-56.512,168.095-17.63,300.844h95.488c0,0-96.939-93.893-46.56-286.431
		c10.948,14.147,24.88,34.678,36.506,59.686l14.696,1.854l-6.564,17.587c8.048,21.534,13.839,45.591,14.645,71.337
		c0.206,6.572,4.17,11.437,6.194,7.13c31.024-66.113,21.268-133.779-22.22-173.261c27.42,9.042,49.829,31.091,67.288,56.314
		l20.822,4.47l-3.878,23.473c14.611,27.78,23.576,55.286,26.777,71.055c1.26,6.211,4.555,10.261,8.528,3.192
		c23.67-42.124,26.725-122.96-16.052-167.212c-33.168-34.3-91.688-36.558-127.729-27.051c23.661-39.783,86.969-42.743,86.969-42.743
		S405.803,108.34,408,105.045c2.196-3.294,14.276,22.462,14.276,22.462l63.745,26.038c0,0,8.184,5.595,9.78-3.912
		C496.762,143.893,497.345,135.048,493.656,124.29z"/>
</g>
</svg>