<svg height="512pt" viewBox="0 -16 512 511" width="512pt" xmlns="http://www.w3.org/2000/svg"><path d="m430.6875 205.777344h-132.867188c-15.660156-15.660156-24.4375-24.4375-40.09375-40.09375v-118.125c15.449219-15.449219 24.113282-24.109375 39.558594-39.558594h133.933594c15.449219 15.449219 24.109375 24.109375 39.558594 39.558594v118.125c-15.65625 15.65625-24.433594 24.433594-40.089844 40.09375zm0 0" fill="#d69660"/><path d="m496.058594 127.960938h-25.28125v-64.144532h25.28125c3.296875 3.296875 5.144531 5.144532 8.441406 8.441406v47.261719c-3.296875 3.296875-5.144531 5.144531-8.441406 8.441407zm0 0" fill="#f5d9ab"/><path d="m232.445312 63.816406h25.28125v64.144532h-25.28125c-3.296874-3.296876-5.144531-5.144532-8.441406-8.441407v-47.261719c3.296875-3.296874 5.144532-5.144531 8.441406-8.441406zm0 0" fill="#f5d9ab"/><path d="m424.414062 62.429688h-120.324218c-5.027344 5.023437-7.84375 7.84375-12.871094 12.871093v37.398438c5.027344 5.027343 7.847656 7.84375 12.871094 12.871093h27.589844v37.332032c5.027343 5.027344 7.847656 7.84375 12.871093 12.871094h39.402344c5.027344-5.027344 7.84375-7.84375 12.871094-12.871094v-37.332032h27.589843c5.027344-5.027343 7.84375-7.84375 12.871094-12.871093v-37.398438c-5.027344-5.027343-7.84375-7.847656-12.871094-12.871093zm0 0" fill="#f5d9ab"/><path d="m364.457031 335.8125c-1.324219 1.511719-2.699219 3.082031-4.148437 4.738281 1.445312-1.652343 2.824218-3.226562 4.148437-4.738281zm0 0" fill="#d69660"/><path d="m388.664062 308.171875c-7.125 8.128906-13.335937 15.226563-21.894531 24.996094 8.554688-9.769531 14.773438-16.867188 21.894531-24.996094zm0 0" fill="#d69660"/><path d="m391.683594 304.71875c-.003906.007812-.011719.015625-.015625.019531.003906-.003906.011719-.011719.015625-.019531zm0 0" fill="#d69660"/><path d="m207.21875 340.550781h-73.597656l16.925781 95.933594h56.671875zm0 0" fill="#d69660"/><path d="m150.546875 436.484375 6.074219 34.445313h77.378906v-14.792969l-19.648438-19.652344zm0 0" fill="#f5d9ab"/><path d="m398.851562 296.535156c-2.574218 2.9375-4.929687 5.632813-7.167968 8.183594-.003906.007812-.011719.015625-.015625.019531-1.027344 1.171875-2.023438 2.3125-3.003907 3.433594-7.121093 8.128906-13.339843 15.226563-21.894531 24.996094-.75.859375-1.523437 1.742187-2.3125 2.644531-1.324219 1.511719-2.703125 3.085938-4.148437 4.738281h-9.328125l-1.679688 13.441407 38.957031 82.492187h66.859376zm0 0" fill="#d69660"/><path d="m462.25 436.484375h-73.992188l16.265626 34.445313h77.378906v-14.792969c-7.675782-7.675781-11.976563-11.976563-19.652344-19.652344zm0 0" fill="#f5d9ab"/><path d="m285.480469 436.484375 2.90625 34.445313h77.378906v-14.792969c-7.675781-7.675781-11.976563-11.976563-19.652344-19.652344zm0 0" fill="#f5d9ab"/><path d="m41.660156 436.484375-3.722656 34.445313h77.375v-14.792969l-19.648438-19.652344zm0 0" fill="#f5d9ab"/><path d="m349.300781 353.988281 1.679688-13.4375h9.324219c1.449218-1.65625 2.824218-3.226562 4.148437-4.738281.792969-.90625 1.5625-1.785156 2.316406-2.644531 8.558594-9.769531 14.769531-16.867188 21.890625-25 .984375-1.117188 1.980469-2.257813 3.003906-3.429688.007813-.007812.015626-.011719.019532-.019531 2.238281-2.554688 4.59375-5.246094 7.164062-8.183594 2.023438-2.308594 4.175782-4.761718 6.5-7.421875v-83.339843h-107.53125c-11.4375-11.441407-19.214844-19.214844-28.679687-28.679688h-158.089844c-17.507813 15.714844-28.289063 25.394531-45.792969 41.109375l-4.101562 37.921875-23.652344-23.652344v-68.109375l17.480469-17.480469h97.460937l35.054688-35.058593v-59.648438c-3.1875-3.1875-4.976563-4.976562-8.167969-8.167969h-13.664063l-8.167968 8.167969v47.222657l-17.480469 17.484374h-97.460937l-35.054688 35.054688v92.964844l49.515625 49.511718-15.359375 142.070313h46.875l37.089844-95.933594h151.765625l8.09375 95.933594h53.5zm0 0" fill="#d69660"/><path d="m391.667969 304.738281c-1.023438 1.171875-2.023438 2.3125-3.003907 3.433594.980469-1.121094 1.976563-2.261719 3.003907-3.433594zm0 0" fill="#d69660"/><path d="m391.683594 304.71875c2.238281-2.550781 4.597656-5.246094 7.167968-8.183594-2.574218 2.9375-4.929687 5.628906-7.167968 8.183594zm0 0" fill="#d69660"/><path d="m366.769531 333.167969c-.75.859375-1.523437 1.738281-2.3125 2.644531.789063-.902344 1.5625-1.785156 2.3125-2.644531zm0 0" fill="#d69660"/><path d="m349.300781 353.988281 1.679688-13.4375zm0 0" fill="#d69660"/><g fill="#9e5e28"><path d="m364.457031 335.8125c-1.324219 1.511719-2.699219 3.082031-4.148437 4.738281 1.445312-1.652343 2.824218-3.226562 4.148437-4.738281zm0 0"/><path d="m388.664062 308.171875c-7.125 8.128906-13.335937 15.226563-21.894531 24.996094 8.554688-9.769531 14.773438-16.867188 21.894531-24.996094zm0 0"/><path d="m391.683594 304.71875c-.003906.007812-.011719.015625-.015625.019531.003906-.003906.011719-.011719.015625-.019531zm0 0"/><path d="m391.667969 304.738281c-1.023438 1.171875-2.023438 2.3125-3.003907 3.433594.980469-1.121094 1.976563-2.261719 3.003907-3.433594zm0 0"/><path d="m391.683594 304.71875c2.238281-2.550781 4.597656-5.246094 7.167968-8.183594-2.574218 2.9375-4.929687 5.628906-7.167968 8.183594zm0 0"/><path d="m366.769531 333.167969c-.75.859375-1.523437 1.738281-2.3125 2.644531.789063-.902344 1.5625-1.785156 2.3125-2.644531zm0 0"/><path d="m349.300781 353.988281 1.679688-13.4375zm0 0"/><path d="m287.726562 165.683594v-118.125c15.449219-15.449219 24.109376-24.109375 39.558594-39.558594h-30c-15.445312 15.449219-24.109375 24.109375-39.558594 39.558594v118.125c15.65625 15.65625 24.433594 24.4375 40.09375 40.09375h30c-15.660156-15.660156-24.4375-24.4375-40.09375-40.09375zm0 0"/></g><path d="m361.679688 162.902344v-37.332032h-27.589844c-5.023438-5.027343-7.84375-7.84375-12.871094-12.871093v-37.398438c5.027344-5.027343 7.847656-7.847656 12.871094-12.871093h-30c-5.023438 5.023437-7.84375 7.84375-12.871094 12.871093v37.398438c5.027344 5.027343 7.847656 7.84375 12.871094 12.871093h27.589844v37.332032c5.027343 5.027344 7.847656 7.847656 12.875 12.871094h30c-5.027344-5.023438-7.847657-7.84375-12.875-12.871094zm0 0" fill="#ffb680"/><path d="m394.457031 335.8125c-1.324219 1.511719-2.699219 3.082031-4.148437 4.738281 1.445312-1.652343 2.824218-3.226562 4.148437-4.738281zm0 0" fill="#9e5e28"/><path d="m133.621094 340.550781 16.925781 95.933594h30l-16.925781-95.933594zm0 0" fill="#9e5e28"/><path d="m150.546875 436.484375 6.074219 34.445313h30l-6.074219-34.445313zm0 0" fill="#ffb680"/><path d="m380.980469 340.550781h9.324219c1.449218-1.652343 14.460937-16.511719 17.984374-20.535156l-9.4375-23.480469c-2.570312 2.9375-37.097656 42.359375-38.546874 44.015625h-9.324219l-1.683594 13.4375 38.960937 82.496094h30l-38.960937-82.496094zm0 0" fill="#9e5e28"/><path d="m388.257812 436.484375 16.265626 34.445313h30l-16.265626-34.445313zm0 0" fill="#ffb680"/><path d="m285.480469 436.484375 2.90625 34.445313h30l-2.90625-34.445313zm0 0" fill="#ffb680"/><path d="m41.660156 436.484375-3.722656 34.445313h30l3.722656-34.445313zm0 0" fill="#ffb680"/><path d="m37.5 244.902344v-92.964844l35.054688-35.054688h-30l-35.054688 35.054688v92.964844l49.515625 49.511718-15.355469 142.070313h30l15.355469-142.070313zm0 0" fill="#9e5e28"/><path d="m396.769531 333.167969c-.75.859375-1.523437 1.738281-2.3125 2.644531.789063-.902344 1.5625-1.785156 2.3125-2.644531zm0 0" fill="#9e5e28"/><path d="m379.300781 353.988281 1.679688-13.4375zm0 0" fill="#9e5e28"/><path d="m384.253906 100.316406h-15v-15h15zm-25 0h-15v-15h15zm0 0" fill="#fff"/><path d="m499.164062 56.316406h-20.886718v-11.863281l-43.953125-43.953125h-140.144531l-43.953126 43.953125v11.863281h-20.886718l-12.832032 12.832032v53.476562l12.832032 12.835938h20.886718v33.328124l44.488282 44.484376h139.078125l44.484375-44.484376v-33.328124h20.886718l12.835938-12.835938v-53.476562zm-263.613281 64.144532-4.042969-4.046876v-41.050781l4.042969-4.046875h14.675781v49.144532zm227.726563 42.117187-35.699219 35.695313h-126.652344l-35.699219-35.695313v-111.914063l35.167969-35.164062h127.71875l35.164063 35.164062zm33.722656-46.164063-4.046875 4.046876h-14.675781v-49.144532h14.675781l4.046875 4.046875zm0 0"/><path d="m300.984375 54.929688-17.265625 17.261718v43.613282l17.265625 17.265624h23.199219v32.941407l17.261718 17.261719h45.613282l17.265625-17.261719v-32.941407h23.199219l17.261718-17.265624v-43.613282l-17.261718-17.265625h-126.539063zm128.800781 54.664062-8.476562 8.476562h-31.984375v41.730469l-8.480469 8.476563h-33.1875l-8.476562-8.476563v-41.730469h-31.984376l-8.476562-8.476562v-31.1875l8.476562-8.480469h114.109376l8.480468 8.480469zm0 0"/><path d="m214.71875 428.984375v-60.933594h-15v60.933594h-42.878906l-9.101563-51.582031-14.769531 2.605468 8.636719 48.976563c.382812 2.164063 1.578125 8.945313 2.648437 15l6.074219 34.441406h91.171875v-25.398437l-24.042969-24.042969zm11.78125 34.445313h-63.585938l-3.429687-19.445313h51.757813l15.257812 15.257813zm0 0"/><path d="m460.183594 428.984375-42.875-106.636719-13.917969 5.59375 40.628906 101.042969h-51.007812l-15.019531-31.800781-13.5625 6.40625c21.757812 46.070312 32.730468 69.3125 35.34375 74.835937h89.628906v-25.398437l-24.042969-24.042969zm14.21875 34.445313h-65.128906l-9.179688-19.445313h59.050781l15.257813 15.257813zm0 0"/><path d="m347.476562 428.984375 9.265626-74.0625.859374-6.871094h6.109376c34.4375-39.328125 33.53125-38.265625 33.597656-38.371093l.019531-.019532c1.257813-1.433594 6.605469-7.542968 7.164063-8.183594l8.355468-9.542968v-58.660156h-15v53.023437l-40.945312 46.753906h-12.542969l-.820313 6.566407-1.683593 13.441406-9.496094 75.925781h-39.984375l-8.097656-95.933594h-163.796875l-37.089844 95.933594h-33.378906l14.84375-137.335937-49.855469-49.851563v-86.753906l30.660156-30.660157h97.460938l21.875-21.878906v-47.222656l3.773437-3.773438h7.453125l3.773438 3.773438v53.4375l-30.660156 30.664062h-97.460938l-21.875 21.875v74.324219l36.925781 36.925781 5.472657-50.640624 41.519531-37.273438h116.328125v-15h-122.074219l-50.066406 44.949219-2.726563 25.203125-10.378906-10.378906v-61.898438l13.089844-13.085938h97.457031l39.449219-39.449218v-65.863282l-12.558594-12.5625h-19.882812l-12.558594 12.5625v47.222657l-13.089844 13.089843h-97.457031l-39.449219 39.445313v99.179687l49.171875 49.171876-15.867187 146.804687-3.722657 34.441406h93.230469v-25.398437l-23.539062-23.539063 31.488281-81.4375h139.730469c8.523437 101.019531 5.957031 70.628907 11 130.378907h91.769531v-25.402344l-24.042969-24.042969zm-239.664062 34.445313h-61.523438l2.101563-19.445313h44.167969l15.253906 15.257813zm250.453125 0h-62.984375l-1.640625-19.445313h49.367187l15.257813 15.257813zm0 0"/></svg>